<svg width="1282" height="376" xmlns="http://www.w3.org/2000/svg" xmlns:xlink="http://www.w3.org/1999/xlink" overflow="hidden"><defs><clipPath id="clip0"><rect x="-1" y="200" width="1282" height="376"/></clipPath><clipPath id="clip1"><rect x="0" y="291" width="1280" height="285"/></clipPath><clipPath id="clip2"><rect x="0" y="291" width="1280" height="285"/></clipPath><clipPath id="clip3"><rect x="0" y="291" width="1280" height="285"/></clipPath></defs><g clip-path="url(#clip0)" transform="translate(1 -200)"><g clip-path="url(#clip1)"><g clip-path="url(#clip2)"><g clip-path="url(#clip3)"><path d="M0 227.556 42.6667 203.822C85.3333 180.444 170.667 132.444 256 137.511 341.333 142.222 426.667 199.111 512 194.4 597.333 189.333 682.667 123.556 768 113.778 853.333 104 938.667 152 1024 175.378 1109.33 199.111 1194.67 199.111 1237.33 199.111L1280 199.111 1280 284.444 1237.33 284.444C1194.67 284.444 1109.33 284.444 1024 284.444 938.667 284.444 853.333 284.444 768 284.444 682.667 284.444 597.333 284.444 512 284.444 426.667 284.444 341.333 284.444 256 284.444 170.667 284.444 85.3333 284.444 42.6667 284.444L0 284.444Z" fill="#548FF7" transform="matrix(1 0 0 1.00195 0 291)"/></g></g></g><path d="M2-2.37093e-06 2.0001 88.5619-1.99989 88.5619-2 2.37093e-06ZM6.0001 88.5619C6.00011 91.8756 3.31382 94.5619 0.0001121 94.5619-3.3136 94.5619-5.99989 91.8756-5.99989 88.5619-5.9999 85.2482-3.31361 82.5619 9.78741e-05 82.5619 3.31381 82.5619 6.0001 85.2482 6.0001 88.5619Z" fill="#548FF7" transform="matrix(1 0 0 -1 87 478.562)"/><text font-family="DengXian,DengXian_MSFontService,sans-serif" font-weight="700" font-size="20" transform="translate(28.4234 323)">December,<tspan x="97.1667" y="0">2020</tspan><tspan font-weight="300" x="0" y="24">Project inception and </tspan><tspan font-weight="300" x="0" y="48">initial token distribution</tspan><tspan x="188.435" y="-97">March,</tspan><tspan x="251.102" y="-97">2021</tspan><tspan font-weight="300" x="188.435" y="-73">Oracle integration, AMM </tspan><tspan font-weight="300" x="188.435" y="-49">and perpetual contract </tspan><tspan font-weight="300" x="188.435" y="-25">live on </tspan><tspan font-weight="300" x="248.768" y="-25">testnet</tspan><tspan x="412.832" y="-12">June,</tspan><tspan x="460.832" y="-12">2021</tspan><tspan font-weight="300" x="412.832" y="12">Perpetual contract exchange </tspan><tspan font-weight="300" x="412.832" y="36">launch and liquidity mining on </tspan><tspan font-weight="300" x="412.832" y="60">mainnet</tspan><tspan x="699.779" y="-83">December,</tspan><tspan x="796.946" y="-83">2021</tspan><tspan font-weight="300" x="699.779" y="-59">PARA staking vote for community </tspan><tspan font-weight="300" x="699.779" y="-35">proposals and governance</tspan><tspan x="1006.56" y="43">June,</tspan><tspan x="1054.56" y="43">2022</tspan><tspan font-weight="300" x="1006.56" y="67">Complete transformation </tspan><tspan font-weight="300" x="1006.56" y="91">to DAO</tspan></text><path d="M2-1.91605e-06 2.0001 109.587-1.99989 109.587-2 1.91605e-06ZM6.0001 109.587C6.00011 112.9 3.31382 115.587 0.000110735 115.587-3.3136 115.587-5.99989 112.9-5.99989 109.587-5.9999 106.273-3.31361 103.587 9.92387e-05 103.587 3.31381 103.587 6.0001 106.273 6.0001 109.587Z" fill="#548FF7" transform="matrix(1 0 0 -1 270 442.587)"/><path d="M2-2.19211e-06 2.0001 95.7862-1.99989 95.7862-2 2.19211e-06ZM6.0001 95.7862C6.00011 99.0999 3.31382 101.786 0.000111563 101.786-3.3136 101.786-5.99989 99.1-5.99989 95.7862-5.9999 92.4725-3.31361 89.7862 9.84105e-05 89.7862 3.31381 89.7862 6.0001 92.4725 6.0001 95.7862Z" fill="#548FF7" transform="matrix(1 0 0 -1 514 495.786)"/><path d="M2-2.02328e-06 2.0001 103.779-1.99989 103.779-2 2.02328e-06ZM6.0001 103.779C6.00011 107.093 3.31382 109.779 0.000111057 109.779-3.3136 109.779-5.99989 107.093-5.99989 103.779-5.9999 100.465-3.31361 97.779 9.8917e-05 97.779 3.31381 97.779 6.0001 100.465 6.0001 103.779Z" fill="#548FF7" transform="matrix(1 0 0 -1 794 411.779)"/><path d="M2-2.30733e-06 2.0001 91.003-1.99989 91.003-2 2.30733e-06ZM6.0001 91.003C6.00011 94.3167 3.31382 97.003 0.000111909 97.003-3.3136 97.0031-5.99989 94.3168-5.99989 91.0031-5.9999 87.6893-3.31361 85.0031 9.80649e-05 85.003 3.31381 85.003 6.0001 87.6893 6.0001 91.003Z" fill="#548FF7" transform="matrix(1 0 0 -1 1112 504.003)"/></g></svg>