<?xml version="1.0" encoding="utf-8"?>
<!-- Generator: Adobe Illustrator 22.0.1, SVG Export Plug-In . SVG Version: 6.00 Build 0)  -->
<svg version="1.1" id="Layer_1" xmlns="http://www.w3.org/2000/svg" xmlns:xlink="http://www.w3.org/1999/xlink" x="0px" y="0px"
	 viewBox="0 0 512 512" style="enable-background:new 0 0 512 512;" xml:space="preserve">
<style type="text/css">
	.st0{fill:#EDF3FC;}
	.st1{fill:#5D8EF9;}
	.st2{fill:#FFBE1B;}
	.st3{fill:#330D84;}
	.st4{fill:#6857E5;}
	.st5{fill:#FFFFFF;}
	.st6{fill:url(#SVGID_1_);}
	.st7{fill:url(#SVGID_2_);}
	.st8{fill:#FFE37B;}
	.st9{fill:#8AC9F9;}
	.st10{fill:#5932AE;}
	.st11{fill:url(#SVGID_3_);}
</style>
<g>
	<g>
		<g>
			<path class="st0" d="M255.999,40.928c-118.777,0-215.069,96.294-215.069,215.074c0,118.774,96.292,215.068,215.069,215.068
				c118.778,0,215.071-96.294,215.071-215.068C471.07,137.222,374.777,40.928,255.999,40.928z"/>
		</g>
	</g>
	<g>
		<g>
			<path class="st0" d="M255.999,1.001C115.392,1.001,1,115.392,1,256.002C1,396.606,115.392,511,255.999,511
				C396.607,511,511,396.606,511,256.002C511,115.392,396.607,1.001,255.999,1.001z M255.999,502.828
				C119.897,502.828,9.17,392.101,9.17,256.002C9.17,119.897,119.897,9.168,255.999,9.168
				c136.103,0,246.831,110.729,246.831,246.834C502.83,392.101,392.102,502.828,255.999,502.828z"/>
		</g>
	</g>
	<g>
		<g>
			<path class="st3" d="M168.451,125.882c-8.525-2.139-15.188-8.799-17.324-17.321l-0.365-1.457l-0.363,1.457
				c-2.137,8.522-8.799,15.183-17.324,17.321l-1.457,0.368l1.457,0.364c8.525,2.135,15.188,8.797,17.324,17.321l0.363,1.457
				l0.365-1.457c2.137-8.524,8.799-15.187,17.324-17.321l1.459-0.364L168.451,125.882z"/>
		</g>
	</g>
	<g>
		<g>
			<path class="st2" d="M407.791,267.93c-14.321-3.587-25.512-14.779-29.101-29.099l-0.611-2.445l-0.609,2.445
				c-3.593,14.319-14.783,25.512-29.102,29.099l-2.449,0.612l2.449,0.612c14.318,3.592,25.509,14.779,29.102,29.104l0.609,2.44
				l0.611-2.44c3.59-14.324,14.78-25.512,29.101-29.104l2.449-0.612L407.791,267.93z"/>
		</g>
	</g>
	<g>
		<g>
			<path class="st2" d="M157.436,374.65c-6.764-1.696-12.048-6.979-13.741-13.741l-0.291-1.155l-0.287,1.155
				c-1.695,6.762-6.98,12.045-13.742,13.741l-1.156,0.289l1.156,0.289c6.762,1.696,12.047,6.98,13.742,13.743l0.287,1.152
				l0.291-1.152c1.693-6.764,6.978-12.047,13.741-13.743l1.156-0.289L157.436,374.65z"/>
		</g>
	</g>
	<g>
		<g>
			<path class="st1" d="M369.2,214.965c-6.764-1.696-12.048-6.979-13.741-13.74l-0.291-1.155l-0.287,1.155
				c-1.695,6.761-6.98,12.044-13.742,13.74l-1.156,0.289l1.156,0.289c6.762,1.696,12.047,6.98,13.742,13.743l0.287,1.152
				l0.291-1.152c1.693-6.764,6.977-12.047,13.741-13.743l1.156-0.289L369.2,214.965z"/>
		</g>
	</g>
	<g>
		<g>
			<path class="st2" d="M321.787,254.635c-1.555,3.96-4.905,6.743-8.859,6.843c0,0-75.649,0.521-90.857,0.521
				c-7.904,0-14.852-3.624-19.709-7.106c-18.424,22.706-33.625,50.641-33.625,76.792c0,25.621,8.27,45.203,21.984,59.048
				c9.088,9.172,21.528,14.239,34.438,14.239h73.591c12.911,0,25.347-5.067,34.438-14.238
				c13.718-13.845,21.983-33.428,21.983-59.049C355.17,305.435,340.131,277.386,321.787,254.635z"/>
		</g>
	</g>
	<g>
		<g>
			<path class="st2" d="M324.936,116.778c-10.483-11.231-27.466,10.43-37.808,10.43c-10.344,0-6.344-20.86-25.292-20.86
				c-18.946,0-12.34,20.86-25.292,20.86c-12.95,0-25.649-21.573-37.806-10.43c-10.431,9.56,7.396,23.502,18.96,37.504
				c0.205,0.249,0.398,0.49,0.6,0.736c9.553-9.902,20.607-20.225,25.74-20.875c5.004-0.635,11.6,1.327,21.281,2.36
				c9.68,1.037,18.11,1.147,18.11,1.147s6.851-0.334,6.265,4.334c-0.35,2.729-5.461,15.171-21.333,14.146
				c-4.736-0.305-19.965,0.194-19.965,0.194s-1.05,1.634-2.827,4.141l53.747-0.584c0.793-1.155,1.677-2.35,2.688-3.573
				C313.423,142.501,337.102,129.815,324.936,116.778z"/>
		</g>
	</g>
	<g>
		<g>
			<path class="st5" d="M293.691,331.636c-2.802-3.242-6.57-5.376-11.309-6.395c1.311-0.58,2.225-0.997,2.73-1.256
				c0.513-0.251,1.422-0.89,2.736-1.913c3.859-2.912,5.787-7.357,5.787-13.326c0-4.957-1.711-9.393-5.136-13.324
				c-1.89-2.113-4.716-3.786-8.466-5.03c-1.117-0.367-2.324-0.665-3.57-0.922v-9.715h-13.402v8.783h-8.982v-8.783h-13.402v8.783
				h-3.743h-10.924v14.419h10.924v47.523h-10.924v14.422h10.924h3.743v8.784h13.402v-8.784h8.982v8.784h13.402v-9.113
				c7.277-0.784,12.622-3.022,15.967-6.771c3.645-4.074,5.465-8.773,5.465-14.095C297.897,338.9,296.494,334.88,293.691,331.636z
				 M253.977,302.957h8.198c5.025,0,8.59,0.547,10.701,1.639c2.112,1.09,3.17,3.328,3.17,6.72c0,3.381-1.147,5.591-3.442,6.604
				c-2.295,1.021-5.809,1.532-10.541,1.532h-8.086V302.957z M276.647,348.676c-2.439,1.205-6.102,1.805-10.979,1.805h-11.691
				v-17.589h10.052c5.68,0,9.813,0.567,12.4,1.692c2.582,1.134,3.878,3.461,3.878,6.994
				C280.308,345.108,279.087,347.476,276.647,348.676z"/>
		</g>
	</g>
	<g>
		<g>
			<path class="st9" d="M323.805,224.303c-0.166-6.576-4.992-11.882-11.051-12.496v-0.368c7.017-0.591,12.441-6.31,12.26-13.13
				c-0.162-6.612-5.525-11.925-12.26-12.476v-0.44c6.059-0.649,10.707-6.308,10.537-13.073c-0.176-7.106-5.575-12.732-12.068-12.567
				l-65.652,0.714c1.777-2.507,2.827-4.141,2.827-4.141s15.229-0.499,19.965-0.194c15.872,1.025,20.983-11.417,21.333-14.146
				c0.586-4.668-6.265-4.334-6.265-4.334s-8.431-0.11-18.11-1.147c-9.682-1.033-16.277-2.995-21.281-2.36
				c-10.009,1.268-42.533,39.304-42.533,39.304l-31.847-0.041v75.185l25.511-0.014c0,0,11.689,13.422,26.9,13.422
				c15.208,0,90.857-0.521,90.857-0.521c5.563-0.14,9.951-5.579,9.787-12.154c-0.172-6.389-4.588-11.51-9.961-11.65v-0.267
				C319.091,236.817,323.975,231.128,323.805,224.303z"/>
		</g>
	</g>
	<g>
		<g>
			<path class="st3" d="M161.893,162.818h-40.866c-4.288,0-7.765,3.477-7.765,7.766v89.343c0,4.286,3.477,7.765,7.765,7.765h40.866
				c4.289,0,7.767-3.479,7.767-7.765v-89.343C169.659,166.296,166.182,162.818,161.893,162.818z"/>
		</g>
	</g>
	<g>
		<g>
			<path class="st5" d="M147.12,178.429c-4.565,0-8.264,3.699-8.264,8.263c0,4.564,3.698,8.265,8.264,8.265
				c4.564,0,8.264-3.7,8.264-8.265C155.384,182.128,151.685,178.429,147.12,178.429z"/>
		</g>
	</g>
</g>
</svg>
