<?xml version="1.0" encoding="utf-8"?>
<!-- Generator: Adobe Illustrator 22.0.1, SVG Export Plug-In . SVG Version: 6.00 Build 0)  -->
<svg version="1.1" id="Layer_1" xmlns="http://www.w3.org/2000/svg" xmlns:xlink="http://www.w3.org/1999/xlink" x="0px" y="0px"
	 viewBox="0 0 512 512" style="enable-background:new 0 0 512 512;" xml:space="preserve">
<style type="text/css">
	.st0{fill:#EDF3FC;}
	.st1{fill:#330D84;}
	.st2{fill:#FFBE1B;}
	.st3{fill:#5D8EF9;}
	.st4{fill:#FFE37B;}
	.st5{fill:#8AC9F9;}
	.st6{fill:#6857E5;}
	.st7{fill:#FFFFFF;}
	.st8{fill:#D5EBF7;}
	.st9{fill:#5932AE;}
	.st10{fill:#CECAFF;}
	.st11{fill:#FFCA45;}
	.st12{fill:#FFD45C;}
	.st13{fill:#8C7BFD;}
	.st14{fill:#6DC5F2;}
	.st15{fill:#3B2296;}
	.st16{fill:#EFAB11;}
</style>
<g>
	<g>
		<g>
			<path class="st0" d="M255.998,40.93C137.225,40.93,40.93,137.223,40.93,256s96.295,215.072,215.068,215.072
				c118.783,0,215.074-96.295,215.074-215.072S374.781,40.93,255.998,40.93z"/>
		</g>
	</g>
	<g>
		<g>
			<path class="st0" d="M255.998,1C115.391,1,1,115.393,1,256s114.391,255,254.998,255C396.607,511,511,396.607,511,256
				S396.607,1,255.998,1z M255.998,502.831C119.896,502.831,9.168,392.102,9.168,256S119.896,9.169,255.998,9.169
				C392.102,9.169,502.83,119.898,502.83,256S392.102,502.831,255.998,502.831z"/>
		</g>
	</g>
	<g>
		<g>
			<path class="st2" d="M130.451,323.735c-9.585-2.403-17.073-9.892-19.475-19.476l-0.413-1.637l-0.407,1.637
				c-2.404,9.584-9.893,17.072-19.476,19.476l-1.639,0.411l1.639,0.41c9.583,2.402,17.071,9.889,19.476,19.475l0.407,1.638
				l0.413-1.638c2.401-9.586,9.89-17.072,19.475-19.475l1.64-0.41L130.451,323.735z"/>
		</g>
	</g>
	<g>
		<g>
			<path class="st1" d="M155.454,126.233c-8.501-2.131-15.141-8.771-17.273-17.271l-0.36-1.451l-0.368,1.451
				c-2.128,8.501-8.765,15.141-17.267,17.271l-1.449,0.363l1.449,0.363c8.502,2.128,15.139,8.766,17.267,17.271l0.368,1.45
				l0.36-1.45c2.133-8.505,8.772-15.143,17.273-17.271l1.45-0.363L155.454,126.233z"/>
		</g>
	</g>
	<g>
		<g>
			<path class="st3" d="M403.133,212.395c-11.723-2.937-20.879-12.092-23.819-23.814l-0.497-2.001l-0.507,2.001
				c-2.935,11.723-12.087,20.878-23.807,23.814l-1.999,0.502l1.999,0.503c11.72,2.934,20.872,12.085,23.807,23.813l0.507,1.999
				l0.497-1.999c2.94-11.727,12.097-20.879,23.819-23.813l2.001-0.503L403.133,212.395z"/>
		</g>
	</g>
	<g>
		<g>
			<path class="st3" d="M362.185,165.061c-6.922-1.734-12.329-7.141-14.065-14.063l-0.293-1.182l-0.3,1.182
				c-1.732,6.922-7.138,12.328-14.059,14.063l-1.181,0.296l1.181,0.298c6.921,1.732,12.326,7.137,14.059,14.061l0.3,1.181
				l0.293-1.181c1.736-6.924,7.144-12.328,14.065-14.061l1.182-0.298L362.185,165.061z"/>
		</g>
	</g>
	<g>
		<g>
			<path class="st2" d="M318.704,177.661c-0.999-0.813-2.104-1.072-3.202-1.011c-1.838,13.276-3.124,18.434-3.124,18.434
				s-0.044-0.154-0.118-0.439c0.15,4.208,0.273,7.988,0.359,11.091c0.85,0.162,1.746,0.14,2.583-0.268
				c2.802-1.37,5.369-12.39,6.309-15.95C322.445,185.96,322.734,180.94,318.704,177.661z"/>
		</g>
	</g>
	<g>
		<g>
			<path class="st2" d="M200.303,203.195c0,0-2.794-10.953-3.787-18.185c-0.162-1.178-1.444-4.255-2.941-8.354
				c-0.905,0.049-1.801,0.333-2.624,1.004c-4.03,3.279-3.74,8.299-2.806,11.857c0.936,3.561,3.506,14.58,6.311,15.95
				c2.207,1.076,4.844-0.5,5.865-1.218c0.002-0.403,0.005-0.807,0.008-1.217c0.035-0.236,0.109-0.745,0.206-1.476
				C200.395,202.61,200.303,203.195,200.303,203.195z"/>
		</g>
	</g>
	<g>
		<g>
			<path class="st4" d="M312.26,194.645c-0.555-2.114-2.926-11.881-2.699-23.498c0.125-6.323,0.79-13.62,0.061-18.239
				c-0.729-4.62-3.163-12.162-8.754-12.648c0,0-24.91,27.917-78.33,24.409c-5.182-0.341-9.785-1.158-13.896-2.337
				c-5.09,3.969-6.924,8.968-6.78,13.063c0.474,13.78-1.305,26.124-1.532,27.639c-0.017,2.248-0.025,4.4-0.025,6.398
				c0,14.192,8.743,23.371,21.712,33.264c7.233,5.52,17.636,11.229,24.241,14.304c4.616,2.146,18.187,1.73,21.905,0.013
				c6.978-3.229,14.022-6.552,21.366-12.298c12.035-9.412,23.225-20.072,23.225-32.046
				C312.752,209.65,312.557,202.984,312.26,194.645z"/>
		</g>
	</g>
	<g>
		<g>
			<path class="st2" d="M283.447,249.004c-5.188,3.299-10.254,5.681-15.286,8.009c-3.718,1.718-17.289,2.133-21.905-0.013
				c-4.493-2.092-10.742-5.403-16.557-9.044c-0.219,2.092-0.614,5.475-1.122,8.088l28.057,18.414l27.896-18.048
				C284.066,254.14,283.69,251.168,283.447,249.004z"/>
		</g>
	</g>
	<g>
		<g>
			<path class="st1" d="M312.177,115.856c-6.162-7.508-13.862-11.331-22.38-10.288c-6.482-8.435-16.751-14.837-33.06-13.897
				c-25.628,1.475-25.919,14.925-45.521,20.808c-19.605,5.886-27.497-9.596-35.366-4.274c-7.87,5.321-3.229,25.545,12.697,42.329
				c-1.322,13.8,7.525,31.25,7.969,34.477c0.993,7.232,3.787,18.185,3.787,18.185s2.065-13.084,1.558-27.8
				c-0.144-4.095,1.69-9.094,6.78-13.063c4.111,1.179,8.715,1.996,13.896,2.337c53.42,3.508,78.33-24.409,78.33-24.409
				c5.591,0.485,8.024,8.027,8.754,12.648c0.729,4.619,0.064,11.916-0.061,18.239c-0.257,13.143,2.817,23.936,2.817,23.936
				s1.454-5.829,3.482-21.064C317.019,165.314,328.518,135.756,312.177,115.856z"/>
		</g>
	</g>
	<g>
		<g>
			<path class="st3" d="M334.324,278.078l-30.664-9.244l-15.624-6.892c0.493,2.056,0.419,3.876,0.419,3.876
				s-14.547,27.27-15.07,25.667c-3.718-11.355-15.64-16.407-16.814-16.88c-1.511,0.647-12.646,5.742-16.58,16.736
				c-0.564,1.591-15.182-25.78-15.182-25.78s-0.075-1.922,0.462-4.048l-15.45,7.203l-31.951,9.455
				c-17.004,5.035-28.672,20.652-28.672,38.389v17.437h213.605v-17.593C362.803,298.746,351.234,283.17,334.324,278.078z"/>
		</g>
	</g>
	<g>
		<g>
			<path class="st1" d="M220.127,263.912l-10.307,4.805l-31.951,9.455c-17.004,5.035-28.672,20.652-28.672,38.389v17.437h82.519
				L220.127,263.912z"/>
		</g>
	</g>
	<g>
		<g>
			<path class="st9" d="M220.127,263.912l-4.76,2.22c-5.986,7.374-15.6,19.626-15.656,22.322c-0.084,3.917,15.082,13.333,15,15.666
				c-0.084,2.333-11.037,9.51-11.121,12.762c-0.031,1.256,3.659,8.589,8.2,17.115h19.926L220.127,263.912z"/>
		</g>
	</g>
	<g>
		<g>
			<path class="st1" d="M334.131,277.672l-31.951-9.455l-10.309-4.805l-11.609,70.585h82.541V316.56
				C362.803,298.824,351.135,282.707,334.131,277.672z"/>
		</g>
	</g>
	<g>
		<g>
			<path class="st9" d="M312.289,288.454c-0.057-2.696-9.67-15.448-15.656-22.822l-4.762-2.22l-11.609,70.585h19.947
				c4.542-8.526,8.232-15.859,8.201-17.115c-0.084-3.252-11.037-10.429-11.121-12.762
				C297.207,301.787,312.373,292.371,312.289,288.454z"/>
		</g>
	</g>
	<g>
		<g>
			<path class="st1" d="M262.15,299.108c-2.102,0.907-8.251,1.064-10.246-0.155l-5.185,35.044h20.216L262.15,299.108z"/>
		</g>
	</g>
	<g>
		<g>
			<path class="st9" d="M256.57,274.605c-1.151,0.493-7.885,3.568-12.77,9.867c1.746,3.696,6.36,13.241,7.951,14.394
				c1.98,1.425,9.338,1.14,10.846,0c1.242-0.939,5.501-10.893,6.99-14.439C264.603,277.997,257.484,274.975,256.57,274.605z"/>
		</g>
	</g>
	<g>
		<g>
			<path class="st5" d="M228.506,255.997c0,0-1.418,1.017-2.623,3.714c-1.203,2.698-1.074,5.851-1.074,5.851
				s14.617,27.371,15.182,25.78c4.225-11.805,16.756-16.81,16.756-16.81L228.506,255.997z"/>
		</g>
	</g>
	<g>
		<g>
			<path class="st5" d="M287.379,259.97c-1.207-2.698-2.619-3.708-2.619-3.708l-28.291,18.303c0,0,13.004,4.973,16.916,16.921
				c0.523,1.602,15.07-25.667,15.07-25.667S288.586,262.666,287.379,259.97z"/>
		</g>
	</g>
	<g>
		<g>
			<path class="st2" d="M364.722,333.997h-217.44c-8.391,0-15.191,6.801-15.191,15.185v50.287c0,8.39,6.801,15.19,15.191,15.19
				h217.44c8.388,0,15.188-6.801,15.188-15.19v-50.287C379.909,340.798,373.109,333.997,364.722,333.997z"/>
		</g>
	</g>
	<g>
		<g>
			<path class="st1" d="M196.075,349.414h-10.977c-2.963,0-5.387,2.424-5.387,5.387v39.056c0,2.896,2.289,5.387,5.185,5.387h11.179
				c13.736,0,24.914-11.178,24.914-24.915C220.989,360.592,209.811,349.414,196.075,349.414z M196.075,388.469h-5.59v-28.281h5.59
				c7.743,0,14.073,6.33,14.073,14.141C210.148,382.14,203.818,388.469,196.075,388.469z"/>
		</g>
	</g>
	<g>
		<g>
			<path class="st1" d="M273.441,391.701l-17.44-38.988c-0.606-1.279-1.549-2.289-2.828-2.828c-1.347-0.538-3.03-0.538-4.377,0
				c-1.212,0.539-2.289,1.549-2.828,2.828l-17.441,38.988c-1.212,2.693,0,5.926,2.693,7.07c2.357,1.011,5.656,0.337,7.07-2.761
				l2.425-5.319h20.605l2.357,5.319c1.414,3.165,4.848,3.906,7.07,2.761C273.374,397.425,274.653,394.395,273.441,391.701z
				 M245.564,379.984l5.455-12.255l5.454,12.255H245.564z"/>
		</g>
	</g>
	<g>
		<g>
			<path class="st1" d="M306.97,349.01c-13.938,0-25.318,11.313-25.318,25.318c0,14.007,11.38,25.319,25.318,25.319
				c14.006,0,25.318-11.313,25.318-25.319C332.288,360.322,320.976,349.01,306.97,349.01z M306.902,388.94
				c-8.08,0-14.478-6.531-14.478-14.612c0-8.08,6.397-14.611,14.478-14.611c7.945,0,14.612,6.666,14.612,14.611
				C321.515,382.274,314.848,388.94,306.902,388.94z"/>
		</g>
	</g>
</g>
</svg>
